# xmcd CD database file
#
# Track frame offsets:
#	150
#	20852
#	42737
#	61852
#	84572
#	86900
#	98217
#	117190
#	138037
#	140135
#	157510
#	179430
#
# Disc length: 2621 seconds
#
# Revision: 0
# Processed by: cddbd v1.5.1PL0 Copyright (c) Steve Scherf et al.
# Submitted via: CDex 1.51
#
DISCID=a10a3b0c
DTITLE=ダンス☆マン - ミラーボーリズム
DYEAR=1998
DGENRE=Funk
TTITLE0=背の高いヤツはジャマ
TTITLE1=安全日こそ
TTITLE2=赤ちゃんこんにちは21
TTITLE3=寝たのね
TTITLE4=MC#1
TTITLE5=ダンス☆マンのテーマ
TTITLE6=おかあさん ありがとう
TTITLE7=夢中の半年
TTITLE8=MC#2
TTITLE9=よくある名字「斉藤」
TTITLE10=グッと耐える
TTITLE11=応援
EXTD=YEAR: 1998
EXTT0=
EXTT1=
EXTT2=
EXTT3=
EXTT4=
EXTT5=
EXTT6=
EXTT7=
EXTT8=
EXTT9=
EXTT10=
EXTT11=
PLAYORDER=
